<svg width="21" height="21" viewBox="0 0 21 21" fill="none" xmlns="http://www.w3.org/2000/svg">
<path d="M2.72412 5.18982C2.25813 5.18982 1.88037 5.56758 1.88037 6.03357C1.88037 6.49956 2.25813 6.87732 2.72412 6.87732V5.18982ZM19.0366 6.87732C19.5026 6.87732 19.8804 6.49956 19.8804 6.03357C19.8804 5.56758 19.5026 5.18982 19.0366 5.18982V6.87732ZM2.72412 6.87732H19.0366V5.18982H2.72412V6.87732Z" fill="#191D15"/>
<path d="M4.97412 9.68982C4.50813 9.68982 4.13037 10.0676 4.13037 10.5336C4.13037 10.9995 4.50813 11.3773 4.97412 11.3773V9.68982ZM16.7866 11.3773C17.2526 11.3773 17.6304 10.9995 17.6304 10.5336C17.6304 10.0676 17.2526 9.68982 16.7866 9.68982V11.3773ZM4.97412 11.3773H16.7866V9.68982H4.97412V11.3773Z" fill="#191D15"/>
<path d="M7.22412 14.1898C6.75813 14.1898 6.38037 14.5676 6.38037 15.0336C6.38037 15.4995 6.75813 15.8773 7.22412 15.8773V14.1898ZM14.5366 15.8773C15.0026 15.8773 15.3804 15.4995 15.3804 15.0336C15.3804 14.5676 15.0026 14.1898 14.5366 14.1898V15.8773ZM7.22412 15.8773H14.5366V14.1898H7.22412V15.8773Z" fill="#191D15"/>
</svg>
