<svg width="20" height="20" viewBox="0 0 20 20" fill="none" xmlns="http://www.w3.org/2000/svg">
<path d="M4.98382 4.54098H18.5577L16.6253 12.7538C16.3743 13.8201 15.4228 14.5738 14.3274 14.5738H9.45671C8.38555 14.5738 7.44868 13.8526 7.1746 12.8172L4.98382 4.54098ZM4.98382 4.54098L4.09857 1H1.44281" stroke="#191D15" stroke-width="1.5" stroke-linecap="round" stroke-linejoin="round"/>
<path d="M7.64054 19.0001C8.29242 19.0001 8.82088 18.4716 8.82088 17.8197C8.82088 17.1679 8.29242 16.6394 7.64054 16.6394C6.98866 16.6394 6.46021 17.1679 6.46021 17.8197C6.46021 18.4716 6.98866 19.0001 7.64054 19.0001Z" fill="#191D15"/>
<path d="M15.9036 19.0001C16.5555 19.0001 17.0839 18.4716 17.0839 17.8197C17.0839 17.1679 16.5555 16.6394 15.9036 16.6394C15.2517 16.6394 14.7233 17.1679 14.7233 17.8197C14.7233 18.4716 15.2517 19.0001 15.9036 19.0001Z" fill="#191D15"/>
</svg>
