<svg width="14" height="13" viewBox="0 0 14 13" fill="none" xmlns="http://www.w3.org/2000/svg">
<path d="M13 5.39898C12.9941 5.53418 12.9194 5.68858 12.7744 5.81052C12.194 6.29827 11.6133 6.78556 11.0323 7.2724C10.761 7.50012 10.4893 7.72748 10.2173 7.95449C10.1784 7.98681 10.1686 8.01546 10.1805 8.06561C10.3893 8.93858 10.5965 9.81191 10.8019 10.6856C10.8435 10.8612 10.8844 11.0371 10.9294 11.2121C10.9948 11.4712 10.9112 11.7273 10.7001 11.8722C10.4678 12.0316 10.2211 12.042 9.97561 11.9027C9.19352 11.4579 8.41244 11.0114 7.63237 10.563C7.45026 10.4589 7.26592 10.3573 7.08683 10.2494C7.02693 10.2132 6.98343 10.2129 6.92193 10.2483C5.97329 10.7931 5.02258 11.3345 4.07505 11.8791C3.87382 11.9946 3.66829 12.038 3.44587 11.9507C3.15159 11.8352 2.99784 11.5392 3.07097 11.2316C3.27777 10.3609 3.4849 9.4903 3.69235 8.61966C3.736 8.43676 3.77504 8.25248 3.82236 8.07094C3.83606 8.01851 3.8265 7.98757 3.78492 7.95297C3.42845 7.65635 3.07288 7.35872 2.71821 7.06008C2.22127 6.64275 1.72241 6.22831 1.22834 5.80793C1.02663 5.63661 0.950149 5.41788 1.03284 5.16775C1.11553 4.91763 1.30035 4.76704 1.57599 4.7399C2.06449 4.69204 2.55379 4.65196 3.04277 4.60913C3.52649 4.56675 4.01021 4.52468 4.49393 4.48292C4.65517 4.46905 4.81641 4.4535 4.97781 4.44177C5.02975 4.43811 5.05747 4.41631 5.07691 4.37104C5.51506 3.38609 5.95396 2.40154 6.3936 1.4174C6.515 1.14533 6.73185 0.993364 7.00749 1.00022C7.28313 1.00708 7.48197 1.13588 7.59127 1.37808C7.88873 2.037 8.18237 2.69745 8.47729 3.35759C8.62738 3.69292 8.77778 4.02916 8.92532 4.36601C8.94795 4.41784 8.98029 4.43796 9.03685 4.44222C9.42561 4.47372 9.81427 4.50675 10.2028 4.5413C10.7685 4.59048 11.3342 4.64007 11.8998 4.69006C12.0795 4.70531 12.2594 4.72055 12.4387 4.73975C12.7647 4.77664 13.0025 5.03682 13 5.39898Z" stroke="#DAA17B" stroke-linecap="round" stroke-linejoin="round"/>
</svg>
