<svg width="12" height="11" viewBox="0 0 12 11" fill="none" xmlns="http://www.w3.org/2000/svg">
<path d="M12 4.39898C11.9941 4.53418 11.9194 4.68858 11.7744 4.81052C11.194 5.29827 10.6133 5.78556 10.0323 6.2724C9.76099 6.50012 9.48934 6.72748 9.21731 6.95449C9.17844 6.98681 9.16856 7.01546 9.18051 7.06561C9.38933 7.93858 9.59646 8.81191 9.80189 9.6856C9.84347 9.86119 9.88442 10.0371 9.92935 10.2121C9.99484 10.4712 9.91119 10.7273 9.70008 10.8722C9.46778 11.0316 9.22114 11.042 8.97561 10.9027C8.19352 10.4579 7.41244 10.0114 6.63237 9.56305C6.45026 9.45894 6.26592 9.35728 6.08683 9.24936C6.02693 9.21324 5.98343 9.21293 5.92193 9.2483C4.97329 9.79305 4.02258 10.3345 3.07505 10.8791C2.87382 10.9946 2.66829 11.038 2.44587 10.9507C2.15159 10.8352 1.99784 10.5392 2.07097 10.2316C2.27777 9.36094 2.4849 8.4903 2.69235 7.61966C2.736 7.43676 2.77504 7.25248 2.82236 7.07094C2.83606 7.01851 2.8265 6.98757 2.78492 6.95297C2.42845 6.65635 2.07288 6.35872 1.71821 6.06008C1.22127 5.64275 0.722413 5.22831 0.228336 4.80793C0.026627 4.63661 -0.0498505 4.41788 0.0328408 4.16775C0.115532 3.91763 0.300353 3.76704 0.575991 3.7399C1.06449 3.69204 1.55379 3.65196 2.04277 3.60913C2.52649 3.56675 3.01021 3.52468 3.49393 3.48292C3.65517 3.46905 3.81641 3.4535 3.97781 3.44177C4.02975 3.43811 4.05747 3.41631 4.07691 3.37104C4.51506 2.38609 4.95396 1.40154 5.3936 0.417403C5.515 0.145329 5.73185 -0.00663645 6.00749 0.000222552C6.28313 0.00708156 6.48197 0.135878 6.59127 0.378078C6.88873 1.037 7.18237 1.69745 7.47729 2.35759C7.62738 2.69292 7.77778 3.02916 7.92532 3.36601C7.94795 3.41784 7.98029 3.43796 8.03685 3.44222C8.42561 3.47372 8.81427 3.50675 9.20281 3.5413C9.76854 3.59048 10.3342 3.64007 10.8998 3.69006C11.0795 3.70531 11.2594 3.72055 11.4387 3.73975C11.7647 3.77664 12.0025 4.03682 12 4.39898Z" fill="#DAA17B"/>
</svg>
