<svg width="505" height="505" viewBox="0 0 505 505" fill="none" xmlns="http://www.w3.org/2000/svg">
<g clip-path="url(#clip0_204_13146)">
<path d="M252.5 505C391.952 505 505 391.952 505 252.5C505 113.048 391.952 0 252.5 0C113.048 0 0 113.048 0 252.5C0 391.952 113.048 505 252.5 505Z" fill="#DAA17B"/>
<path d="M252.5 482C379.249 482 482 379.249 482 252.5C482 125.751 379.249 23 252.5 23C125.751 23 23 125.751 23 252.5C23 379.249 125.751 482 252.5 482Z" fill="#C1402A" stroke="black" stroke-width="10"/>
<path d="M252.5 419C344.455 419 419 344.455 419 252.5C419 160.545 344.455 86 252.5 86C160.545 86 86 160.545 86 252.5C86 344.455 160.545 419 252.5 419Z" fill="#191D15"/>
<path d="M250 404C332.29 404 399 337.29 399 255C399 172.71 332.29 106 250 106C167.71 106 101 172.71 101 255C101 337.29 167.71 404 250 404Z" fill="#DAA17B"/>
<path d="M393 172H109V336H393V172Z" fill="#191D15"/>
<path d="M109.5 256.5C109.5 303.168 162.838 335 135.5 335C108.162 335 86 303.168 86 256.5C86 209.832 108.162 172 135.5 172C162.838 172 109.5 209.832 109.5 256.5Z" fill="#191D15"/>
<path d="M109.5 256.5C109.5 303.168 162.838 335 135.5 335C108.162 335 86 303.168 86 256.5C86 209.832 108.162 172 135.5 172C162.838 172 109.5 209.832 109.5 256.5Z" fill="#191D15"/>
<path d="M389.575 257.893C389.533 211.225 336.162 173.44 363.5 173.416C390.838 173.392 413.033 211.204 413.075 257.872C413.116 304.54 399.542 334.848 372.204 334.872C344.866 334.896 389.616 304.561 389.575 257.893Z" fill="#191D15"/>
<path d="M389.575 257.893C389.533 211.225 336.162 173.44 363.5 173.416C390.838 173.392 413.033 211.204 413.075 257.872C413.116 304.54 399.542 334.848 372.204 334.872C344.866 334.896 389.616 304.561 389.575 257.893Z" fill="#191D15"/>
<g filter="url(#filter0_di_204_13146)">
<path d="M253.32 309.44C248.52 312.2 243.36 314.42 237.84 316.1C232.44 317.66 226.68 318.44 220.56 318.44C211.68 318.44 203.34 316.76 195.54 313.4C187.74 310.04 180.96 305.42 175.2 299.54C169.32 293.78 164.7 287 161.34 279.2C157.98 271.4 156.3 263.06 156.3 254.18C156.3 245.3 157.98 236.96 161.34 229.16C164.7 221.24 169.32 214.34 175.2 208.46C180.96 202.7 187.74 198.14 195.54 194.78C203.34 191.3 211.68 189.56 220.56 189.56C226.68 189.56 232.44 190.34 237.84 191.9C243.36 193.46 248.58 195.68 253.5 198.56V218.72H246.48V203.06C242.52 201.02 238.32 199.46 233.88 198.38C229.56 197.18 225.12 196.58 220.56 196.58C212.64 196.58 205.26 198.14 198.42 201.26C191.58 204.26 185.58 208.4 180.42 213.68C175.26 218.84 171.18 224.96 168.18 232.04C165.18 239 163.68 246.44 163.68 254.36C163.68 262.16 165.18 269.54 168.18 276.5C171.18 283.46 175.26 289.46 180.42 294.5C185.46 299.66 191.4 303.8 198.24 306.92C205.08 309.92 212.4 311.42 220.2 311.42C225.48 311.42 230.52 310.76 235.32 309.44C240.24 308 244.86 306.02 249.18 303.5L253.32 309.44ZM309.183 317H266.163V309.98H277.143V198.02H266.163V191H305.943C311.463 191 316.563 191.6 321.243 192.8C325.923 194 329.883 195.86 333.123 198.38C336.483 200.9 339.063 204.2 340.863 208.28C342.663 212.24 343.563 216.98 343.563 222.5C343.563 229.94 341.703 236.48 337.983 242.12C334.383 247.76 328.803 251.6 321.243 253.64C324.723 254.36 328.083 255.56 331.323 257.24C334.683 258.92 337.623 261.08 340.143 263.72C342.663 266.36 344.643 269.42 346.083 272.9C347.523 276.38 348.243 280.28 348.243 284.6C348.243 290 347.103 294.74 344.823 298.82C342.663 302.78 339.843 306.08 336.363 308.72C332.643 311.48 328.383 313.58 323.583 315.02C318.903 316.34 314.103 317 309.183 317ZM284.523 257.24V309.98H308.463C312.903 309.98 317.043 309.44 320.883 308.36C324.843 307.28 328.323 305.6 331.323 303.32C334.203 301.28 336.483 298.64 338.163 295.4C339.963 292.16 340.863 288.38 340.863 284.06C340.863 279.38 339.843 275.36 337.803 272C335.883 268.52 333.303 265.76 330.063 263.72C326.703 261.56 322.863 259.94 318.543 258.86C314.343 257.78 309.963 257.24 305.403 257.24H284.523ZM284.523 198.02V250.22H308.283C316.923 250.22 323.703 247.76 328.623 242.84C333.663 237.8 336.183 231.2 336.183 223.04C336.183 218.6 335.463 214.76 334.023 211.52C332.583 208.28 330.543 205.7 327.903 203.78C325.383 201.86 322.383 200.42 318.903 199.46C315.543 198.5 311.763 198.02 307.563 198.02H284.523Z" fill="#C1402A"/>
<mask id="mask0_204_13146" style="mask-type:luminance" maskUnits="userSpaceOnUse" x="153" y="186" width="199" height="136">
<path d="M352 186H153V322H352V186Z" fill="white"/>
<path d="M253.32 309.44C248.52 312.2 243.36 314.42 237.84 316.1C232.44 317.66 226.68 318.44 220.56 318.44C211.68 318.44 203.34 316.76 195.54 313.4C187.74 310.04 180.96 305.42 175.2 299.54C169.32 293.78 164.7 287 161.34 279.2C157.98 271.4 156.3 263.06 156.3 254.18C156.3 245.3 157.98 236.96 161.34 229.16C164.7 221.24 169.32 214.34 175.2 208.46C180.96 202.7 187.74 198.14 195.54 194.78C203.34 191.3 211.68 189.56 220.56 189.56C226.68 189.56 232.44 190.34 237.84 191.9C243.36 193.46 248.58 195.68 253.5 198.56V218.72H246.48V203.06C242.52 201.02 238.32 199.46 233.88 198.38C229.56 197.18 225.12 196.58 220.56 196.58C212.64 196.58 205.26 198.14 198.42 201.26C191.58 204.26 185.58 208.4 180.42 213.68C175.26 218.84 171.18 224.96 168.18 232.04C165.18 239 163.68 246.44 163.68 254.36C163.68 262.16 165.18 269.54 168.18 276.5C171.18 283.46 175.26 289.46 180.42 294.5C185.46 299.66 191.4 303.8 198.24 306.92C205.08 309.92 212.4 311.42 220.2 311.42C225.48 311.42 230.52 310.76 235.32 309.44C240.24 308 244.86 306.02 249.18 303.5L253.32 309.44ZM309.183 317H266.163V309.98H277.143V198.02H266.163V191H305.943C311.463 191 316.563 191.6 321.243 192.8C325.923 194 329.883 195.86 333.123 198.38C336.483 200.9 339.063 204.2 340.863 208.28C342.663 212.24 343.563 216.98 343.563 222.5C343.563 229.94 341.703 236.48 337.983 242.12C334.383 247.76 328.803 251.6 321.243 253.64C324.723 254.36 328.083 255.56 331.323 257.24C334.683 258.92 337.623 261.08 340.143 263.72C342.663 266.36 344.643 269.42 346.083 272.9C347.523 276.38 348.243 280.28 348.243 284.6C348.243 290 347.103 294.74 344.823 298.82C342.663 302.78 339.843 306.08 336.363 308.72C332.643 311.48 328.383 313.58 323.583 315.02C318.903 316.34 314.103 317 309.183 317ZM284.523 257.24V309.98H308.463C312.903 309.98 317.043 309.44 320.883 308.36C324.843 307.28 328.323 305.6 331.323 303.32C334.203 301.28 336.483 298.64 338.163 295.4C339.963 292.16 340.863 288.38 340.863 284.06C340.863 279.38 339.843 275.36 337.803 272C335.883 268.52 333.303 265.76 330.063 263.72C326.703 261.56 322.863 259.94 318.543 258.86C314.343 257.78 309.963 257.24 305.403 257.24H284.523ZM284.523 198.02V250.22H308.283C316.923 250.22 323.703 247.76 328.623 242.84C333.663 237.8 336.183 231.2 336.183 223.04C336.183 218.6 335.463 214.76 334.023 211.52C332.583 208.28 330.543 205.7 327.903 203.78C325.383 201.86 322.383 200.42 318.903 199.46C315.543 198.5 311.763 198.02 307.563 198.02H284.523Z" fill="black"/>
</mask>
<g mask="url(#mask0_204_13146)">
<path d="M253.32 309.44L254.815 312.041L257.652 310.409L255.781 307.725L253.32 309.44ZM237.84 316.1L238.673 318.982L238.693 318.976L238.713 318.97L237.84 316.1ZM175.2 299.54L177.343 297.441L177.321 297.419L177.299 297.397L175.2 299.54ZM161.34 229.16L164.095 230.347L164.099 230.339L164.102 230.332L161.34 229.16ZM195.54 194.78L196.727 197.535L196.745 197.528L196.762 197.52L195.54 194.78ZM237.84 191.9L237.007 194.782L237.016 194.785L237.024 194.787L237.84 191.9ZM253.5 198.56H256.5V196.84L255.016 195.971L253.5 198.56ZM253.5 218.72V221.72H256.5V218.72H253.5ZM246.48 218.72H243.48V221.72H246.48V218.72ZM246.48 203.06H249.48V201.231L247.854 200.393L246.48 203.06ZM233.88 198.38L233.077 201.271L233.124 201.284L233.171 201.295L233.88 198.38ZM198.42 201.26L199.625 204.007L199.645 203.999L199.665 203.989L198.42 201.26ZM180.42 213.68L182.541 215.801L182.554 215.789L182.566 215.777L180.42 213.68ZM168.18 232.04L170.935 233.227L170.939 233.219L170.942 233.21L168.18 232.04ZM180.42 294.5L182.566 292.404L182.541 292.379L182.516 292.354L180.42 294.5ZM198.24 306.92L196.995 309.649L197.015 309.659L197.035 309.667L198.24 306.92ZM235.32 309.44L236.115 312.333L236.139 312.326L236.163 312.319L235.32 309.44ZM249.18 303.5L251.641 301.785L250.059 299.514L247.668 300.909L249.18 303.5ZM251.825 306.839C247.229 309.482 242.279 311.613 236.967 313.23L238.713 318.97C244.441 317.227 249.811 314.918 254.815 312.041L251.825 306.839ZM237.007 313.218C231.901 314.693 226.423 315.44 220.56 315.44V321.44C226.937 321.44 232.979 320.627 238.673 318.982L237.007 313.218ZM220.56 315.44C212.069 315.44 204.135 313.836 196.727 310.645L194.353 316.155C202.545 319.684 211.291 321.44 220.56 321.44V315.44ZM196.727 310.645C189.274 307.434 182.821 303.033 177.343 297.441L173.057 301.639C179.099 307.807 186.206 312.646 194.353 316.155L196.727 310.645ZM177.299 297.397C171.707 291.919 167.306 285.466 164.095 278.013L158.585 280.387C162.094 288.534 166.933 295.641 173.101 301.683L177.299 297.397ZM164.095 278.013C160.904 270.605 159.3 262.671 159.3 254.18H153.3C153.3 263.449 155.056 272.195 158.585 280.387L164.095 278.013ZM159.3 254.18C159.3 245.689 160.904 237.755 164.095 230.347L158.585 227.973C155.056 236.165 153.3 244.911 153.3 254.18H159.3ZM164.102 230.332C167.317 222.754 171.723 216.179 177.321 210.581L173.079 206.339C166.917 212.501 162.083 219.726 158.578 227.988L164.102 230.332ZM177.321 210.581C182.801 205.101 189.261 200.751 196.727 197.535L194.353 192.025C186.219 195.529 179.119 200.299 173.079 206.339L177.321 210.581ZM196.762 197.52C204.162 194.218 212.084 192.56 220.56 192.56V186.56C211.276 186.56 202.518 188.382 194.318 192.04L196.762 197.52ZM220.56 192.56C226.423 192.56 231.901 193.307 237.007 194.782L238.673 189.018C232.979 187.373 226.937 186.56 220.56 186.56V192.56ZM237.024 194.787C242.301 196.278 247.285 198.398 251.984 201.149L255.016 195.971C249.875 192.962 244.419 190.642 238.656 189.013L237.024 194.787ZM250.5 198.56V218.72H256.5V198.56H250.5ZM253.5 215.72H246.48V221.72H253.5V215.72ZM249.48 218.72V203.06H243.48V218.72H249.48ZM247.854 200.393C243.677 198.242 239.254 196.6 234.589 195.465L233.171 201.295C237.386 202.32 241.363 203.798 245.106 205.727L247.854 200.393ZM234.683 195.489C230.097 194.216 225.387 193.58 220.56 193.58V199.58C224.853 199.58 229.023 200.144 233.077 201.271L234.683 195.489ZM220.56 193.58C212.234 193.58 204.427 195.223 197.175 198.531L199.665 203.989C206.093 201.057 213.046 199.58 220.56 199.58V193.58ZM197.215 198.513C190.027 201.665 183.707 206.025 178.274 211.583L182.566 215.777C187.453 210.775 193.133 206.855 199.625 204.007L197.215 198.513ZM178.299 211.559C172.851 217.006 168.56 223.454 165.418 230.87L170.942 233.21C173.8 226.466 177.669 220.674 182.541 215.801L178.299 211.559ZM165.425 230.853C162.256 238.204 160.68 246.05 160.68 254.36H166.68C166.68 246.83 168.104 239.796 170.935 233.227L165.425 230.853ZM160.68 254.36C160.68 262.556 162.259 270.341 165.425 277.687L170.935 275.313C168.101 268.739 166.68 261.764 166.68 254.36H160.68ZM165.425 277.687C168.572 284.988 172.87 291.319 178.324 296.646L182.516 292.354C177.65 287.601 173.788 281.932 170.935 275.313L165.425 277.687ZM178.274 296.596C183.583 302.032 189.833 306.382 196.995 309.649L199.485 304.191C192.967 301.218 187.337 297.288 182.566 292.404L178.274 296.596ZM197.035 309.667C204.272 312.841 212.004 314.42 220.2 314.42V308.42C212.796 308.42 205.888 306.999 199.445 304.173L197.035 309.667ZM220.2 314.42C225.733 314.42 231.041 313.728 236.115 312.333L234.525 306.547C229.999 307.792 225.227 308.42 220.2 308.42V314.42ZM236.163 312.319C241.311 310.812 246.156 308.737 250.692 306.091L247.668 300.909C243.564 303.303 239.169 305.188 234.477 306.561L236.163 312.319ZM246.719 305.215L250.859 311.155L255.781 307.725L251.641 301.785L246.719 305.215ZM266.163 317H263.163V320H266.163V317ZM266.163 309.98V306.98H263.163V309.98H266.163ZM277.143 309.98V312.98H280.143V309.98H277.143ZM277.143 198.02H280.143V195.02H277.143V198.02ZM266.163 198.02H263.163V201.02H266.163V198.02ZM266.163 191V188H263.163V191H266.163ZM333.123 198.38L331.281 200.748L331.302 200.764L331.323 200.78L333.123 198.38ZM340.863 208.28L338.119 209.491L338.125 209.506L338.132 209.521L340.863 208.28ZM337.983 242.12L335.479 240.468L335.467 240.487L335.455 240.506L337.983 242.12ZM321.243 253.64L320.462 250.744L320.635 256.578L321.243 253.64ZM331.323 257.24L329.942 259.903L329.962 259.913L329.982 259.923L331.323 257.24ZM344.823 298.82L342.204 297.357L342.197 297.37L342.19 297.383L344.823 298.82ZM336.363 308.72L338.151 311.129L338.164 311.12L338.176 311.11L336.363 308.72ZM323.583 315.02L324.398 317.907L324.422 317.901L324.445 317.893L323.583 315.02ZM284.523 257.24V254.24H281.523V257.24H284.523ZM284.523 309.98H281.523V312.98H284.523V309.98ZM320.883 308.36L320.094 305.466L320.082 305.469L320.071 305.472L320.883 308.36ZM331.323 303.32L329.589 300.872L329.548 300.901L329.508 300.932L331.323 303.32ZM338.163 295.4L335.541 293.943L335.52 293.981L335.5 294.019L338.163 295.4ZM337.803 272L335.177 273.449L335.207 273.504L335.239 273.557L337.803 272ZM330.063 263.72L328.441 266.244L328.453 266.251L328.465 266.259L330.063 263.72ZM318.543 258.86L317.796 261.765L317.806 261.768L317.816 261.77L318.543 258.86ZM284.523 198.02V195.02H281.523V198.02H284.523ZM284.523 250.22H281.523V253.22H284.523V250.22ZM327.903 203.78L326.085 206.166L326.112 206.187L326.139 206.206L327.903 203.78ZM318.903 199.46L318.079 202.345L318.092 202.348L318.105 202.352L318.903 199.46ZM309.183 314H266.163V320H309.183V314ZM269.163 317V309.98H263.163V317H269.163ZM266.163 312.98H277.143V306.98H266.163V312.98ZM280.143 309.98V198.02H274.143V309.98H280.143ZM277.143 195.02H266.163V201.02H277.143V195.02ZM269.163 198.02V191H263.163V198.02H269.163ZM266.163 194H305.943V188H266.163V194ZM305.943 194C311.247 194 316.093 194.577 320.498 195.706L321.988 189.894C317.033 188.623 311.68 188 305.943 188V194ZM320.498 195.706C324.849 196.822 328.419 198.521 331.281 200.748L334.965 196.012C331.348 193.199 326.997 191.178 321.988 189.894L320.498 195.706ZM331.323 200.78C334.246 202.972 336.513 205.852 338.119 209.491L343.608 207.069C341.614 202.548 338.721 198.828 334.923 195.98L331.323 200.78ZM338.132 209.521C339.714 213.002 340.563 217.297 340.563 222.5H346.563C346.563 216.663 345.612 211.478 343.594 207.039L338.132 209.521ZM340.563 222.5C340.563 229.415 338.843 235.368 335.479 240.468L340.488 243.772C344.563 237.592 346.563 230.465 346.563 222.5H340.563ZM335.455 240.506C332.324 245.41 327.431 248.863 320.462 250.744L322.025 256.536C330.176 254.337 336.442 250.11 340.512 243.734L335.455 240.506ZM320.635 256.578C323.839 257.241 326.94 258.346 329.942 259.903L332.704 254.577C329.227 252.774 325.607 251.479 321.851 250.702L320.635 256.578ZM329.982 259.923C333.041 261.453 335.699 263.409 337.973 265.791L342.313 261.649C339.548 258.751 336.325 256.387 332.665 254.557L329.982 259.923ZM337.973 265.791C340.229 268.155 342.008 270.899 343.311 274.047L348.855 271.753C347.278 267.941 345.098 264.565 342.313 261.649L337.973 265.791ZM343.311 274.047C344.58 277.114 345.243 280.616 345.243 284.6H351.243C351.243 279.944 350.466 275.646 348.855 271.753L343.311 274.047ZM345.243 284.6C345.243 289.568 344.198 293.789 342.204 297.357L347.442 300.283C350.009 295.691 351.243 290.432 351.243 284.6H345.243ZM342.19 297.383C340.226 300.984 337.681 303.955 334.55 306.33L338.176 311.11C342.005 308.205 345.101 304.576 347.457 300.257L342.19 297.383ZM334.576 306.311C331.157 308.847 327.215 310.798 322.721 312.147L324.445 317.893C329.551 316.362 334.13 314.113 338.151 311.129L334.576 306.311ZM322.769 312.133C318.357 313.377 313.831 314 309.183 314V320C314.375 320 319.45 319.303 324.398 317.907L322.769 312.133ZM281.523 257.24V309.98H287.523V257.24H281.523ZM284.523 312.98H308.463V306.98H284.523V312.98ZM308.463 312.98C313.147 312.98 317.563 312.41 321.696 311.248L320.071 305.472C316.523 306.47 312.659 306.98 308.463 306.98V312.98ZM321.673 311.254C325.971 310.082 329.806 308.241 333.139 305.708L329.508 300.932C326.841 302.959 323.716 304.478 320.094 305.466L321.673 311.254ZM333.057 305.768C336.341 303.442 338.934 300.431 340.827 296.781L335.5 294.019C334.032 296.849 332.065 299.118 329.589 300.872L333.057 305.768ZM340.786 296.857C342.872 293.102 343.863 288.805 343.863 284.06H337.863C337.863 287.955 337.055 291.218 335.541 293.943L340.786 296.857ZM343.863 284.06C343.863 278.936 342.743 274.355 340.368 270.443L335.239 273.557C336.944 276.365 337.863 279.824 337.863 284.06H343.863ZM340.43 270.551C338.275 266.644 335.348 263.502 331.662 261.181L328.465 266.259C331.259 268.018 333.492 270.396 335.177 273.449L340.43 270.551ZM331.686 261.196C328.021 258.841 323.872 257.1 319.271 255.95L317.816 261.77C321.854 262.78 325.386 264.279 328.441 266.244L331.686 261.196ZM319.29 255.955C314.834 254.809 310.202 254.24 305.403 254.24V260.24C309.724 260.24 313.852 260.751 317.796 261.765L319.29 255.955ZM305.403 254.24H284.523V260.24H305.403V254.24ZM281.523 198.02V250.22H287.523V198.02H281.523ZM284.523 253.22H308.283V247.22H284.523V253.22ZM308.283 253.22C317.515 253.22 325.133 250.573 330.745 244.961L326.502 240.719C322.274 244.947 316.331 247.22 308.283 247.22V253.22ZM330.745 244.961C336.43 239.276 339.183 231.871 339.183 223.04H333.183C333.183 230.529 330.897 236.324 326.502 240.719L330.745 244.961ZM339.183 223.04C339.183 218.283 338.412 214.009 336.765 210.302L331.282 212.738C332.514 215.511 333.183 218.917 333.183 223.04H339.183ZM336.765 210.302C335.13 206.623 332.77 203.61 329.668 201.354L326.139 206.206C328.316 207.79 330.037 209.937 331.282 212.738L336.765 210.302ZM329.721 201.394C326.857 199.211 323.499 197.616 319.701 196.568L318.105 202.352C321.267 203.224 323.909 204.509 326.085 206.166L329.721 201.394ZM319.727 196.575C316.052 195.525 311.988 195.02 307.563 195.02V201.02C311.539 201.02 315.035 201.475 318.079 202.345L319.727 196.575ZM307.563 195.02H284.523V201.02H307.563V195.02Z" fill="#DAA17B"/>
</g>
</g>
<path d="M150.405 107.259C149.787 108.667 148.999 110.014 148.042 111.3C147.092 112.539 145.933 113.663 144.565 114.672C142.579 116.136 140.438 117.135 138.14 117.67C135.842 118.204 133.565 118.289 131.308 117.924C129.044 117.606 126.893 116.852 124.856 115.662C122.819 114.472 121.068 112.884 119.604 110.899C118.141 108.914 117.141 106.772 116.607 104.474C116.052 102.15 115.947 99.8456 116.293 97.5617C116.631 95.3243 117.395 93.1871 118.585 91.1501C119.755 89.0862 121.333 87.3223 123.318 85.8584C124.686 84.8495 126.103 84.0743 127.567 83.5328C129.058 82.9716 130.591 82.6074 132.166 82.4402L135.49 86.9473L132.31 89.2916L130.5 86.8368C129.612 87.0362 128.77 87.3261 127.973 87.7063C127.157 88.0596 126.387 88.5034 125.662 89.0375C124.133 90.1651 122.915 91.5186 122.009 93.098C121.13 94.6575 120.57 96.313 120.329 98.0645C120.081 99.8625 120.166 101.663 120.585 103.467C121.03 105.25 121.817 106.907 122.945 108.436C124.072 109.965 125.422 111.206 126.994 112.159C128.594 113.092 130.269 113.679 132.02 113.92C133.765 114.207 135.512 114.162 137.262 113.783C139.038 113.384 140.691 112.62 142.22 111.493C143.213 110.761 144.076 109.938 144.811 109.024C145.552 108.063 146.16 107.035 146.636 105.938L150.405 107.259Z" fill="black"/>
<path d="M166.797 95.4099L157.115 100.837L155.183 97.3917L158.498 95.5336L153.193 86.0691L150.314 87.6826L148.383 84.237L154.446 80.8388L155.891 83.009C156.341 83.6742 156.534 83.9859 156.473 83.9441C156.44 83.8859 156.649 84.1895 157.098 84.8547C157.039 83.9322 157.117 83.048 157.331 82.2022C157.557 81.311 157.855 80.5134 158.225 79.8094C158.607 79.0601 159.018 78.4288 159.456 77.9156C159.923 77.3861 160.375 76.9991 160.811 76.7546L162.554 80.4778C161.828 80.8852 161.193 81.3555 160.651 81.8885C160.138 82.4052 159.739 82.9539 159.453 83.5345C159.016 84.3909 158.798 85.2967 158.798 86.2518C158.828 87.1906 159.095 88.1107 159.6 89.0121L162.118 93.5045L164.866 91.9643L166.797 95.4099Z" fill="black"/>
<path d="M199.205 81.4255L192.255 84.1074L191.895 83.1745C191.811 82.9568 191.751 82.8013 191.715 82.708C191.679 82.6147 191.619 82.4592 191.535 82.2415C191.54 82.3468 191.45 82.5779 191.266 82.9346C191.083 83.2914 190.79 83.6902 190.388 84.131C189.968 84.6149 189.436 85.0881 188.792 85.5507C188.161 86.0444 187.394 86.4652 186.493 86.8132C185.186 87.3172 183.868 87.5579 182.537 87.5355C181.195 87.4819 179.942 87.1972 178.778 86.6816C177.614 86.1659 176.574 85.4598 175.656 84.5634C174.758 83.6238 174.068 82.5321 173.588 81.2881C173.12 80.0753 172.904 78.8191 172.938 77.5196C173.004 76.208 173.294 74.9704 173.81 73.8068C174.326 72.6431 175.063 71.5905 176.022 70.6489C176.98 69.7074 178.113 68.9846 179.419 68.4806C181.129 67.8206 182.602 67.6096 183.837 67.8476C185.06 68.0545 185.898 68.3743 186.351 68.807C186.262 68.484 186.161 68.1299 186.048 67.7447C185.955 67.3164 185.836 66.9157 185.692 66.5425L188.91 65.3005L194.238 79.1083L197.783 77.7403L199.205 81.4255ZM180.877 72.2591C180.037 72.5831 179.32 73.0386 178.724 73.6255C178.117 74.1814 177.682 74.8137 177.42 75.5224C177.164 76.1568 177.032 76.8331 177.023 77.551C177.046 78.257 177.201 78.9832 177.489 79.7295C177.825 80.6003 178.308 81.3429 178.938 81.9572C179.599 82.5596 180.337 82.9896 181.151 83.2472C181.718 83.4212 182.339 83.5031 183.014 83.4928C183.677 83.4514 184.35 83.2987 185.035 83.0347C185.812 82.7347 186.464 82.3404 186.99 81.8516C187.547 81.3508 187.975 80.7927 188.273 80.1773C188.61 79.4758 188.786 78.7289 188.802 77.9367C188.849 77.1326 188.716 76.3262 188.404 75.5176C188.092 74.7091 187.649 74.0227 187.074 73.4585C186.53 72.8824 185.919 72.457 185.242 72.1826C184.576 71.9392 183.869 71.8191 183.12 71.8223C182.402 71.8135 181.654 71.9591 180.877 72.2591Z" fill="black"/>
<path d="M217.544 76.9803L206.739 79.5196L205.835 75.6744L208.804 74.9766L206.345 64.5117L203.376 65.2094L202.449 61.2668L205.37 60.5805L203.746 53.6688C203.319 51.8517 203.233 50.1768 203.489 48.6442C203.778 47.104 204.331 45.7414 205.148 44.5563C205.958 43.3388 207.019 42.3189 208.333 41.4967C209.671 40.6343 211.16 39.9763 212.8 39.5225L213.703 43.3677C212.615 43.6919 211.643 44.143 210.785 44.7211C209.953 45.2591 209.269 45.9164 208.732 46.6931C208.171 47.5099 207.806 48.4345 207.638 49.467C207.469 50.4996 207.53 51.6324 207.82 52.8655L209.41 59.6312L215.153 58.2814L216.08 62.224L210.336 63.5738L212.796 74.0387L216.641 73.1351L217.544 76.9803Z" fill="black"/>
<path d="M238.972 73.7535L231.131 74.714L229.344 60.1231L225.175 60.6337L224.682 56.6138L228.851 56.1031L227.368 43.9936L231.487 43.489L232.97 55.5985L237.834 55.0027L238.326 59.0227L233.463 59.6185L234.77 70.2887L238.492 69.8328L238.972 73.7535Z" fill="black"/>
<path d="M257.556 57.9106C256.622 57.9058 255.772 58.0681 255.003 58.3974C254.268 58.6936 253.633 59.1236 253.096 59.6875C252.694 60.1521 252.358 60.6837 252.088 61.2823C251.852 61.8811 251.715 62.5304 251.678 63.2302C253.248 62.6717 254.801 62.1131 256.337 61.5544C257.907 60.9625 259.476 60.3873 261.046 59.8288C260.582 59.2597 260.051 58.8069 259.453 58.4705C258.888 58.1009 258.256 57.9143 257.556 57.9106ZM263.839 70.8934C263.001 71.7224 262.048 72.3675 260.978 72.8286C259.909 73.2897 258.742 73.517 257.475 73.5104C256.075 73.5032 254.76 73.2463 253.529 72.74C252.332 72.2004 251.285 71.4783 250.39 70.5736C249.495 69.669 248.783 68.6319 248.256 67.4625C247.762 66.26 247.519 64.9753 247.526 63.6087C247.533 62.2754 247.79 61.01 248.296 59.8126C248.835 58.6154 249.557 57.5691 250.462 56.6738C251.367 55.8118 252.42 55.134 253.623 54.6402C254.859 54.1133 256.177 53.8534 257.577 53.8607C258.61 53.8661 259.592 54.0878 260.523 54.526C261.488 54.931 262.352 55.5021 263.115 56.2394C263.844 56.9766 264.489 57.8633 265.051 58.8995C265.612 59.9025 266.04 61.0047 266.334 62.2062C264.063 63.0278 261.792 63.8494 259.521 64.6709C257.283 65.4927 255.029 66.3143 252.758 67.1359C253.254 67.8385 253.901 68.4085 254.699 68.846C255.53 69.2503 256.463 69.4551 257.496 69.4605C258.263 69.4645 258.963 69.3349 259.598 69.0715C260.233 68.8081 260.801 68.411 261.304 67.8802L263.839 70.8934Z" fill="black"/>
<path d="M298.573 77.4419L291.219 76.2492L291.379 75.2621C291.417 75.0317 291.443 74.8672 291.459 74.7685C291.475 74.6698 291.502 74.5053 291.539 74.275C291.49 74.3683 291.296 74.5226 290.958 74.7378C290.619 74.953 290.165 75.1495 289.596 75.3274C288.988 75.5328 288.29 75.6728 287.501 75.7475C286.707 75.8551 285.833 75.8315 284.879 75.6767C283.497 75.4526 282.237 74.995 281.1 74.304C279.968 73.5801 279.03 72.7019 278.285 71.6695C277.541 70.637 277.002 69.4858 276.667 68.2159C276.366 66.9513 276.322 65.661 276.536 64.3448C276.749 63.0287 277.196 61.8348 277.876 60.7633C278.595 59.6641 279.47 58.7424 280.503 57.9981C281.535 57.2538 282.7 56.7336 283.998 56.4375C285.301 56.1085 286.643 56.0561 288.025 56.2802C288.847 56.4136 289.602 56.6542 290.288 57.0019C291.008 57.355 291.623 57.7249 292.135 58.1118C292.646 58.4986 293.001 58.8095 293.199 59.0442C293.403 59.2461 293.529 59.4017 293.579 59.5111C293.556 59.2372 293.56 58.9002 293.591 58.5C293.661 58.0723 293.714 57.7432 293.751 57.5129L296.097 43.0519L292.839 42.5235L293.472 38.6245L300.826 39.8172L295.454 72.9345L299.205 73.5428L298.573 77.4419ZM287.376 60.278C286.521 60.1392 285.707 60.1592 284.935 60.3379C284.163 60.5167 283.474 60.8101 282.868 61.2183C282.322 61.67 281.845 62.2173 281.436 62.8603C281.066 63.4757 280.815 64.1946 280.681 65.0172C280.543 65.8727 280.576 66.7055 280.783 67.5157C280.989 68.3258 281.332 69.023 281.811 69.6073C282.23 70.148 282.747 70.6033 283.362 70.9733C284.016 71.3157 284.738 71.5509 285.527 71.679C286.317 71.8071 287.06 71.8093 287.755 71.6857C288.456 71.5292 289.107 71.2633 289.708 70.8881C290.347 70.4852 290.893 69.9321 291.345 69.2287C291.796 68.5253 292.092 67.7458 292.23 66.8904C292.38 65.9691 292.335 65.1007 292.096 64.2852C291.889 63.4751 291.53 62.7752 291.018 62.1856C290.588 61.7107 290.063 61.3047 289.443 60.9677C288.822 60.6306 288.133 60.4007 287.376 60.278Z" fill="black"/>
<path d="M317.178 86.9396L306 81.8066L307.648 78.217L309.693 79.1559L321.002 54.5286L318.958 53.5896L320.606 50L330.966 54.7575C332.45 55.4391 333.729 56.2096 334.801 57.069C335.904 57.9422 336.749 58.8986 337.335 59.9382C337.891 60.9638 338.175 62.1029 338.187 63.3554C338.212 64.5776 337.905 65.8854 337.265 67.2788C336.403 69.1569 335.19 70.5992 333.628 71.6056C332.095 72.6259 330.302 72.9762 328.248 72.6565C329.013 73.2278 329.692 73.9063 330.285 74.6921C330.908 75.4917 331.369 76.3639 331.669 77.3085C331.939 78.2393 332.053 79.2273 332.013 80.2727C331.974 81.3181 331.703 82.3861 331.202 83.4766C330.576 84.8397 329.739 85.9041 328.691 86.6697C327.656 87.405 326.516 87.8903 325.271 88.1255C323.982 88.3771 322.633 88.3994 321.224 88.1926C319.829 87.9555 318.48 87.5378 317.178 86.9396ZM318.347 70.2554L313.464 80.8878L318.508 83.204C319.447 83.6352 320.374 83.9326 321.289 84.0962C322.205 84.2597 323.085 84.2604 323.929 84.0981C324.73 83.9522 325.458 83.6447 326.114 83.1755C326.769 82.7063 327.299 82.0325 327.702 81.154C328.134 80.2149 328.297 79.2997 328.193 78.4082C328.089 77.5167 327.808 76.6908 327.35 75.9304C326.848 75.1864 326.191 74.4997 325.38 73.8703C324.569 73.2409 323.694 72.7106 322.754 72.2794L318.347 70.2554ZM324.774 56.2605L319.995 66.6658L324.903 68.9193C326.69 69.7401 328.328 69.8871 329.817 69.3604C331.336 68.8477 332.472 67.7734 333.223 66.1376C333.654 65.1986 333.849 64.3345 333.808 63.5453C333.811 62.7398 333.615 62.008 333.221 61.3499C332.859 60.7802 332.364 60.2597 331.737 59.7882C331.124 59.2865 330.408 58.8479 329.59 58.4723L324.774 56.2605Z" fill="black"/>
<path d="M341.119 104.626L332 98.2961L334.253 95.0511L337.95 97.6171C339.342 96.8391 340.734 96.0611 342.127 95.2821C343.547 94.5231 344.957 93.7781 346.358 93.0461C346.743 90.27 347.123 87.5309 347.497 84.8287C347.899 82.1455 348.293 79.4159 348.678 76.6399L345.228 74.2447L347.481 71L356.599 77.3301L354.346 80.5748L352.169 79.0636C351.918 81.1209 351.657 83.1918 351.386 85.2765C351.135 87.3337 350.737 89.3096 350.193 91.2041C351.778 90.032 353.476 88.959 355.288 87.9853C357.147 87.0032 358.996 86.0348 360.836 85.0801L358.289 83.3122L360.542 80.0675L369.947 86.5972L367.695 89.8419L364.327 87.5037C360.468 89.6132 356.628 91.6951 352.808 93.7501C349.034 95.7961 345.217 97.8741 341.359 99.9841L343.371 101.381L341.119 104.626Z" fill="black"/>
<path d="M57 262.5C62.799 262.5 67.5 257.799 67.5 252C67.5 246.201 62.799 241.5 57 241.5C51.201 241.5 46.5 246.201 46.5 252C46.5 257.799 51.201 262.5 57 262.5Z" fill="#DAA17B" stroke="#191C15" stroke-width="5"/>
<path d="M448 263.5C453.799 263.5 458.5 258.799 458.5 253C458.5 247.201 453.799 242.5 448 242.5C442.201 242.5 437.5 247.201 437.5 253C437.5 258.799 442.201 263.5 448 263.5Z" fill="#DAA17B" stroke="#191C15" stroke-width="5"/>
<path d="M130 150.5H364" stroke="#191C15" stroke-width="7"/>
<path d="M136 358.5H370" stroke="#191C15" stroke-width="7"/>
<path d="M175.192 148.35L197 139L220.692 125.35L250.192 132.35L262.192 148.35" stroke="black" stroke-width="5"/>
<path d="M219.193 149.504L231.528 136.847L261 125L273 136.847L293.156 149.46" stroke="black" stroke-width="5"/>
<path d="M63 209C66.3137 209 69 206.314 69 203C69 199.686 66.3137 197 63 197C59.6863 197 57 199.686 57 203C57 206.314 59.6863 209 63 209Z" fill="#191D15"/>
<path d="M63 307C66.3137 307 69 304.314 69 301C69 297.686 66.3137 295 63 295C59.6863 295 57 297.686 57 301C57 304.314 59.6863 307 63 307Z" fill="#191D15"/>
<path d="M442 215C445.314 215 448 212.314 448 209C448 205.686 445.314 203 442 203C438.686 203 436 205.686 436 209C436 212.314 438.686 215 442 215Z" fill="#191D15"/>
<path d="M442 313C445.314 313 448 310.314 448 307C448 303.686 445.314 301 442 301C438.686 301 436 303.686 436 307C436 310.314 438.686 313 442 313Z" fill="#191D15"/>
<path d="M195.324 447.673L183.518 443.492L184.177 441.631L185.497 442.098L190.02 429.325L188.7 428.858L189.36 426.996L200.836 431.06L199.551 434.689L197.689 434.03L198.315 432.263L191.976 430.018L190.065 435.414L197.347 437.993L196.688 439.855L189.406 437.276L187.453 442.791L194.122 445.152L194.748 443.385L196.61 444.044L195.324 447.673Z" fill="black"/>
<path d="M209.487 450.257C209.178 450.5 208.794 450.671 208.335 450.77C207.876 450.869 207.325 450.83 206.682 450.653C206.087 450.49 205.536 450.261 205.029 449.967C204.527 449.656 204.164 449.28 203.939 448.838L204.515 446.74L206.299 447.23L206.041 448.17C206.212 448.304 206.381 448.411 206.549 448.491C206.738 448.56 206.968 448.632 207.242 448.707C207.37 448.743 207.503 448.762 207.641 448.765C207.794 448.772 207.938 448.751 208.073 448.702C208.171 448.66 208.257 448.597 208.332 448.514C208.427 448.419 208.497 448.291 208.541 448.13C208.62 447.841 208.591 447.6 208.454 447.407C208.337 447.202 208.148 447.012 207.885 446.836C207.643 446.648 207.366 446.46 207.055 446.271C206.748 446.066 206.469 445.825 206.216 445.548C205.975 445.292 205.805 444.969 205.705 444.578C205.604 444.188 205.631 443.711 205.786 443.149C205.923 442.651 206.134 442.259 206.419 441.975C206.705 441.69 207.021 441.483 207.367 441.353C207.718 441.208 208.076 441.133 208.44 441.129C208.804 441.125 209.123 441.161 209.396 441.236C209.556 441.28 209.745 441.349 209.961 441.443C210.193 441.541 210.419 441.664 210.638 441.81C210.857 441.957 211.061 442.125 211.251 442.315C211.457 442.51 211.622 442.728 211.746 442.97L211.17 445.067L209.386 444.578L209.671 443.541C209.551 443.473 209.437 443.416 209.329 443.369C209.225 443.306 209.109 443.257 208.98 443.222C208.804 443.173 208.644 443.155 208.502 443.168C208.365 443.165 208.247 443.185 208.149 443.227C208.047 443.285 207.964 443.366 207.901 443.47C207.843 443.558 207.804 443.668 207.784 443.801C207.764 444.003 207.84 444.196 208.014 444.382C208.192 444.552 208.41 444.733 208.668 444.925C208.911 445.112 209.173 445.323 209.455 445.556C209.736 445.788 209.985 446.047 210.201 446.331C210.413 446.631 210.56 446.974 210.645 447.36C210.733 447.73 210.709 448.164 210.572 448.662C210.511 448.887 210.387 449.147 210.203 449.442C210.034 449.741 209.795 450.013 209.487 450.257Z" fill="black"/>
<path d="M222.832 454.891L218.937 454.23L220.167 446.984L218.097 446.632L218.436 444.636L220.506 444.987L221.527 438.973L223.573 439.321L222.552 445.334L224.968 445.745L224.629 447.741L222.213 447.331L221.314 452.63L223.162 452.944L222.832 454.891Z" fill="black"/>
<path d="M235.112 453.425C235.044 453.802 234.857 454.09 234.551 454.289C234.247 454.471 233.939 454.535 233.627 454.479C233.299 454.42 233.025 454.252 232.804 453.975C232.585 453.682 232.51 453.347 232.578 452.969C232.646 452.592 232.833 452.304 233.14 452.105C233.446 451.906 233.764 451.836 234.092 451.895C234.403 451.951 234.668 452.126 234.887 452.419C235.105 452.712 235.18 453.047 235.112 453.425Z" fill="black"/>
<path d="M266.376 457.079L255.311 457.569C256.298 456.491 257.253 455.448 258.176 454.439C259.098 453.414 259.914 452.427 260.622 451.478C261.332 450.546 261.893 449.645 262.305 448.776C262.716 447.89 262.904 447.056 262.869 446.274C262.842 445.658 262.719 445.137 262.5 444.713C262.281 444.289 262.016 443.942 261.703 443.673C261.374 443.404 261.024 443.211 260.652 443.094C260.296 442.976 259.968 442.924 259.669 442.937C259.036 442.965 258.525 443.096 258.135 443.33C257.745 443.564 257.44 443.845 257.221 444.171C257.002 444.498 256.85 444.838 256.766 445.192C256.698 445.546 256.67 445.856 256.682 446.122C256.706 446.672 256.811 447.159 256.997 447.585C257.182 447.993 257.44 448.357 257.771 448.676L256.578 450.005C255.996 449.664 255.523 449.16 255.16 448.492C254.813 447.806 254.621 447.047 254.584 446.215C254.554 445.549 254.634 444.903 254.823 444.277C255.029 443.651 255.347 443.095 255.775 442.609C256.188 442.123 256.713 441.733 257.35 441.438C257.987 441.126 258.73 440.951 259.579 440.914C260.345 440.88 261.051 440.991 261.696 441.246C262.341 441.501 262.899 441.851 263.369 442.298C263.84 442.761 264.214 443.303 264.492 443.925C264.769 444.53 264.923 445.182 264.954 445.881C264.991 446.714 264.877 447.528 264.612 448.324C264.363 449.102 264.022 449.885 263.59 450.671C263.141 451.458 262.625 452.24 262.042 453.017C261.458 453.777 260.85 454.546 260.217 455.325L264.313 455.143L264.21 452.821L266.183 452.733L266.376 457.079Z" fill="black"/>
<path d="M285.504 452.37C285.04 453.221 284.458 453.918 283.757 454.461C283.056 455.005 282.29 455.367 281.459 455.546C280.628 455.726 279.779 455.704 278.913 455.482C278.047 455.26 277.235 454.856 276.477 454.269C275.703 453.686 275.029 452.937 274.456 452.02C273.88 451.088 273.458 450.003 273.19 448.764C272.923 447.526 272.853 446.373 272.98 445.306C273.12 444.218 273.416 443.259 273.867 442.429C274.303 441.601 274.879 440.914 275.596 440.367C276.313 439.82 277.128 439.448 278.04 439.251C278.953 439.053 279.85 439.064 280.733 439.283C281.616 439.501 282.426 439.897 283.164 440.471C283.905 441.061 284.548 441.826 285.092 442.766C285.636 443.705 286.042 444.794 286.309 446.032C286.577 447.27 286.622 448.429 286.446 449.507C286.286 450.581 285.972 451.536 285.504 452.37ZM277.488 452.44C278.015 452.906 278.583 453.243 279.191 453.453C279.799 453.663 280.412 453.701 281.031 453.567C281.634 453.437 282.179 453.157 282.666 452.728C283.153 452.299 283.548 451.761 283.852 451.116C284.14 450.474 284.325 449.752 284.407 448.95C284.49 448.148 284.438 447.315 284.251 446.451C284.124 445.865 283.91 445.229 283.609 444.544C283.307 443.859 282.917 443.236 282.438 442.674C281.945 442.133 281.369 441.712 280.707 441.411C280.045 441.111 279.299 441.05 278.468 441.23C277.637 441.409 276.974 441.774 276.479 442.325C275.997 442.855 275.644 443.468 275.419 444.165C275.194 444.861 275.078 445.586 275.07 446.338C275.062 447.09 275.121 447.759 275.248 448.345C275.435 449.209 275.723 449.991 276.113 450.691C276.503 451.391 276.961 451.974 277.488 452.44Z" fill="black"/>
<path d="M306.371 448.492L295.796 451.782C296.475 450.488 297.133 449.237 297.769 448.026C298.4 446.8 298.938 445.638 299.381 444.54C299.83 443.458 300.143 442.444 300.32 441.499C300.493 440.538 300.463 439.683 300.23 438.935C300.047 438.346 299.795 437.875 299.476 437.52C299.156 437.166 298.811 436.898 298.44 436.717C298.054 436.54 297.665 436.443 297.276 436.424C296.902 436.401 296.572 436.434 296.285 436.523C295.681 436.711 295.219 436.968 294.902 437.294C294.584 437.619 294.361 437.968 294.232 438.34C294.104 438.711 294.043 439.079 294.052 439.443C294.076 439.802 294.128 440.109 294.207 440.364C294.371 440.889 294.596 441.333 294.884 441.698C295.167 442.046 295.509 442.332 295.911 442.557L295.096 444.145C294.446 443.964 293.86 443.596 293.339 443.042C292.828 442.468 292.45 441.783 292.202 440.987C292.004 440.351 291.917 439.706 291.941 439.053C291.98 438.394 292.146 437.776 292.437 437.197C292.712 436.622 293.12 436.111 293.662 435.663C294.198 435.2 294.872 434.842 295.684 434.589C296.416 434.362 297.126 434.289 297.815 434.371C298.504 434.454 299.133 434.651 299.701 434.963C300.274 435.291 300.774 435.72 301.201 436.25C301.623 436.765 301.938 437.357 302.146 438.025C302.393 438.821 302.49 439.637 302.437 440.474C302.394 441.29 302.263 442.134 302.045 443.005C301.812 443.88 301.512 444.768 301.146 445.667C300.775 446.55 300.382 447.449 299.968 448.363L303.883 447.145L303.193 444.925L305.079 444.339L306.371 448.492Z" fill="black"/>
<path d="M324.715 441.465L319.089 443.688L318.363 441.851L320.107 441.162L319.151 438.744L312.594 441.335L316.74 426.929L320.36 436.089L322.615 435.198L323.359 437.081L321.104 437.972L322.06 440.39L323.989 439.628L324.715 441.465ZM317.038 433.397L315.756 437.908L318.407 436.861L317.038 433.397Z" fill="black"/>
</g>
<defs>
<filter id="filter0_di_204_13146" x="149.3" y="186.56" width="205.943" height="142.88" filterUnits="userSpaceOnUse" color-interpolation-filters="sRGB">
<feFlood flood-opacity="0" result="BackgroundImageFix"/>
<feColorMatrix in="SourceAlpha" type="matrix" values="0 0 0 0 0 0 0 0 0 0 0 0 0 0 0 0 0 0 127 0" result="hardAlpha"/>
<feOffset dy="4"/>
<feGaussianBlur stdDeviation="2"/>
<feComposite in2="hardAlpha" operator="out"/>
<feColorMatrix type="matrix" values="0 0 0 0 0 0 0 0 0 0 0 0 0 0 0 0 0 0 0.25 0"/>
<feBlend mode="normal" in2="BackgroundImageFix" result="effect1_dropShadow_204_13146"/>
<feBlend mode="normal" in="SourceGraphic" in2="effect1_dropShadow_204_13146" result="shape"/>
<feColorMatrix in="SourceAlpha" type="matrix" values="0 0 0 0 0 0 0 0 0 0 0 0 0 0 0 0 0 0 127 0" result="hardAlpha"/>
<feOffset dy="4"/>
<feGaussianBlur stdDeviation="2"/>
<feComposite in2="hardAlpha" operator="arithmetic" k2="-1" k3="1"/>
<feColorMatrix type="matrix" values="0 0 0 0 0 0 0 0 0 0 0 0 0 0 0 0 0 0 0.25 0"/>
<feBlend mode="normal" in2="shape" result="effect2_innerShadow_204_13146"/>
</filter>
<clipPath id="clip0_204_13146">
<rect width="505" height="505" fill="white"/>
</clipPath>
</defs>
</svg>
